<?xml version="1.0" encoding="UTF-8" standalone="no"?>
<svg
   xmlns:dc="http://purl.org/dc/elements/1.1/"
   xmlns:cc="http://creativecommons.org/ns#"
   xmlns:rdf="http://www.w3.org/1999/02/22-rdf-syntax-ns#"
   xmlns:svg="http://www.w3.org/2000/svg"
   xmlns="http://www.w3.org/2000/svg"
   id="svg6"
   version="1.1"
   style="clip-rule:evenodd;fill-rule:evenodd;image-rendering:optimizeQuality;shape-rendering:geometricPrecision;text-rendering:geometricPrecision"
   viewBox="0 0 2080.7722 2080.7722">
  <metadata
     id="metadata12">
    <rdf:RDF>
      <cc:Work
         rdf:about="">
        <dc:format>image/svg+xml</dc:format>
        <dc:type
           rdf:resource="http://purl.org/dc/dcmitype/StillImage" />
        <dc:title></dc:title>
      </cc:Work>
    </rdf:RDF>
  </metadata>
  <defs
     id="defs10" />
  <g
     transform="matrix(0.3604151,0,0,0.3604151,61.347983,828.41229)"
     id="g80"
     style="clip-rule:evenodd;fill-rule:evenodd;image-rendering:optimizeQuality;shape-rendering:geometricPrecision;text-rendering:geometricPrecision">
    <g
       transform="translate(-3152.1203,-3152.1203)"
       id="g68">
      <path
         d="m 3239.8108,4659.6812 c -48.7903,0.7071 -88.3883,-38.8908 -87.6812,-87.6812 -0.7071,-48.7904 38.8909,-88.3883 87.6812,-87.6812 l 1243.8009,-0.7071 0.7071,-1243.8009 c -0.7071,-48.7903 38.8908,-88.3883 87.6812,-87.6812 48.7904,-0.7071 88.3883,38.8909 87.6812,87.6812 l 0.7071,1243.8009 1243.8009,0.7071 c 48.7903,-0.7071 88.3883,38.8908 87.6812,87.6812 0.7071,48.7904 -38.8909,88.3883 -87.6812,87.6812 l -1243.8009,0.7071 -0.7071,1243.8009 c 0.7071,48.7903 -38.8908,88.3883 -87.6812,87.6812 -48.7904,0.7071 -88.3883,-38.8909 -87.6812,-87.6812 l -0.7071,-1243.8009 z"
         id="path66" />
    </g>
  </g>
  <g
     transform="matrix(327.38813,0,0,327.38813,1333.1594,33.241422)"
     id="g156">
    <path
       transform="matrix(0.004,0,0,-0.004,1.3162,0.03999969)"
       d="m 0,0 c 0,-198 209,-335 209,-533 0,-71 -16,-141 -42,-207 -5,-8 -12,-12 -19,-12 -13,0 -26,11 -23,27 26,61 42,126 42,192 0,104 -95,208 -167,283 H -16 V 0 Z"
       id="path136" />
    <rect
       transform="translate(1.2512,1.9999997)"
       x="-0.064999998"
       y="-2"
       width="0.13"
       height="3.3122001"
       id="rect138" />
    <g
       transform="translate(-94.8335,-6.3453003)"
       id="g142">
      <path
         transform="matrix(0.004,0,0,-0.004,94.8335,9.8453)"
         d="m 220,138 c 56,0 109,-29 109,-91 0,-72 -56,-121 -103,-149 -36,-21 -76,-36 -117,-36 -56,0 -109,29 -109,91 0,72 56,121 103,149 36,21 76,36 117,36 z"
         id="path140" />
    </g>
  </g>
</svg>
