<?xml version="1.0" encoding="UTF-8" standalone="no"?>
<svg
  xmlns:svg="http://www.w3.org/2000/svg"
  xmlns="http://www.w3.org/2000/svg"
  viewBox="0 0.126 99.999998 100"
  version="1.1"
>
  <g
    transform="matrix(15.829114,0,0,15.829114,17.124934,64.9791)"
  >
    <g
      transform="translate(-16.2264,-5.2614061)"
    >
      <path
        d="m 17.038666,6.1 h -1.42 c -0.024,0 -0.04,-0.016 -0.04,-0.04 v -0.544 c 0,-0.024 0.016,-0.04 0.04,-0.04 h 1.42 c 0.024,0 0.04,0.016 0.04,0.04 v 0.544 c 0,0.024 -0.016,0.04 -0.04,0.04 z"
      />
    </g>
    <g
      transform="translate(-13.792496,-5.2614061)"
    >
      <path
        transform="matrix(0.004,0,0,-0.004,16.2264,6.1)"
        d="M 365,0 H 10 C 4,0 0,4 0,10 v 136 c 0,6 4,10 10,10 h 355 c 6,0 10,-4 10,-10 V 10 C 375,4 371,0 365,0 Z"
      />
    </g>
    <rect
       style="fill:#000000"
       id="rect102"
       width="6"
       height="0.12057078"
       x="-1"
       y="1.8" />
  </g>
</svg>
