<?xml version="1.0" encoding="UTF-8" standalone="no"?>
<svg
  xmlns:svg="http://www.w3.org/2000/svg"
  xmlns="http://www.w3.org/2000/svg"
  viewBox="0 0.126 99.999998 100"
  version="1.1"
>
  <g
    transform="matrix(1.4009945,0,0,1.4009945,5.7590617,7.5994605)"
  >
    <g
      id="left-eye"
      transform="matrix(12.615965,0,0,12.615965,0,15.889508)"
    >
      <rect
        id="left-eye-bar"
        height="3.0068822"
        width="0.1605318"
        y="-0.39422411"
        x="1.1648984"
      />
      <g
        id="left-eye-ball"
        transform="translate(-94.8335,-6.3453003)"
      >
        <path
          d="m 95.72273,8.5937581 c 0.224,0 0.436,0.116 0.436,0.364 0,0.288 -0.224,0.484 -0.412,0.596 -0.144,0.084 -0.304,0.144 -0.468,0.144 -0.224,0 -0.436,-0.116 -0.436,-0.364 0,-0.288 0.224,-0.484 0.412,-0.596 0.144,-0.084 0.304,-0.144 0.468,-0.144 z"
        />
      </g>
    </g>
    <g
      transform="matrix(12.241256,0,0,12.241256,35.614049,2.1791739)"
    >
      <rect
        id="right-eye-bar"
        height="3.3122001"
        width="0.13"
        y="-2"
        x="-0.064999998"
        transform="translate(1.2512,1.9999997)"
      />
      <g
        id="right-eye-ball"
        transform="translate(-94.8335,-6.3453003)"
      >
        <path
          d="m 220,138 c 56,0 109,-29 109,-91 0,-72 -56,-121 -103,-149 -36,-21 -76,-36 -117,-36 -56,0 -109,29 -109,91 0,72 56,121 103,149 36,21 76,36 117,36 z"
          transform="matrix(0.004,0,0,-0.004,94.8335,9.8453)"
        />
      </g>
    </g>
  </g>
</svg>
