<?xml version="1.0" encoding="UTF-8" standalone="no"?>
<svg
  xmlns:svg="http://www.w3.org/2000/svg"
  xmlns="http://www.w3.org/2000/svg"
  height="2042.4202"
  width="3450.6074"
  viewBox="0 0 3450.6072 2042.4201"
  version="1.1"
>
  <path
    d="m 39.255247,1103.0313 c -56.06,-33.6324 -51.0924,-125.98017 8.608,-153.25057 C 538.99395,633.86433 1030.1245,317.94783 1521.2552,2.0313307 c 45.6806,-10.0234 105.2741,17.8183003 115.0078,66.5062003 7.2067,27.0278 -15.7517,40.325499 -34.6575,52.546299 -365.42,258.47845 -802.26843,563.54081 -1167.68837,822.01932 -50.91149,36.01207 2933.90237,74.17095 2978.73237,91.83505 45.7532,18.0278 50.4254,65.7764 12.4899,87.4585 -29.961,18.3532 -3037.72958,-35.3498 -2986.23814,0.6559 129.2478,90.3773 288.04945,197.1613 417.37009,287.4209 233.28355,162.6703 469.65195,321.2197 697.03465,492.1388 50.9071,22.9953 50.5113,95.9622 8.939,128.0195 -40.0019,31.3422 -83.7154,-7.7963 -120.2224,-25.1851 C 1188.2679,1857.0763 944.43615,1692.5297 697.80065,1532.7888 478.44195,1389.2983 259.71185,1244.8355 39.255247,1103.0313 Z"
  />
</svg>
