<?xml version="1.0" encoding="UTF-8" standalone="no"?>
<svg
   xmlns:dc="http://purl.org/dc/elements/1.1/"
   xmlns:cc="http://creativecommons.org/ns#"
   xmlns:rdf="http://www.w3.org/1999/02/22-rdf-syntax-ns#"
   xmlns:svg="http://www.w3.org/2000/svg"
   xmlns="http://www.w3.org/2000/svg"
   xmlns:sodipodi="http://sodipodi.sourceforge.net/DTD/sodipodi-0.dtd"
   xmlns:inkscape="http://www.inkscape.org/namespaces/inkscape"
   version="1.1"
   id="svg4"
   sodipodi:docname="C.svg"
   width="39.700001"
   height="49"
   inkscape:version="0.92.2 5c3e80d, 2017-08-06">
  <metadata
     id="metadata10">
    <rdf:RDF>
      <cc:Work
         rdf:about="">
        <dc:format>image/svg+xml</dc:format>
        <dc:type
           rdf:resource="http://purl.org/dc/dcmitype/StillImage" />
        <dc:title></dc:title>
      </cc:Work>
    </rdf:RDF>
  </metadata>
  <defs
     id="defs8" />
  <sodipodi:namedview
     pagecolor="#ffffff"
     bordercolor="#666666"
     borderopacity="1"
     objecttolerance="10"
     gridtolerance="10"
     guidetolerance="10"
     inkscape:pageopacity="0"
     inkscape:pageshadow="2"
     inkscape:window-width="1924"
     inkscape:window-height="1163"
     id="namedview6"
     showgrid="false"
     fit-margin-top="0"
     fit-margin-left="0"
     fit-margin-right="0"
     fit-margin-bottom="0"
     inkscape:zoom="2.36"
     inkscape:cx="50"
     inkscape:cy="-1"
     inkscape:window-x="0"
     inkscape:window-y="0"
     inkscape:window-maximized="0"
     inkscape:current-layer="svg4" />
  <path
     d="M 39.6,14.3 C 39.6,8.8 34.4,0 20.5,0 10.2,0 0,12.4 0,23.2 0,37.01648 7.8,49 21,49 35.9,49 39.7,36.6 39.7,30.5 c -0.5,0 -1.2,0 -1.7,0 C 37.2,35.7 32.2,46 23.6,46 14.3,46 11.9,37.7 11.9,24.3 11.9,7.4 17.4,3 24.1,3 c 5.3,0 8.1,2.8 8.6,3.5 0.2,0.4 0.3,0.9 -0.1,1.3 -4,0 -8.7,2.8 -8.7,8.4 0,3.4 2.4,7.2 7.5,7.2 3.9,0 8.1,-3 8.1,-9 z"
     id="path2"
     inkscape:connector-curvature="0" />
</svg>
