<?xml version='1.0' encoding='utf-8'?>
<svg
  xmlns="http://www.w3.org/2000/svg"
  version="1.1"
  viewBox="2367 2367 4405 4405"
>
  <path
    d="M4572 4660c-49,0 -88,-39 -88,-88l0 -1333c0,-49 39,-88 88,-88 49,0 88,39 88,88l0 1245 1245 0c49,0 88,39 88,88 0,49 -39,88 -88,88l-1333 0zm2029 -88c0,-560 -227,-1067 -594,-1435 -368,-367 -875,-594 -1435,-594 -560,0 -1067,227 -1435,594 -367,368 -594,875 -594,1435 0,560 227,1067 594,1435 368,367 875,594 1435,594 560,0 1067,-227 1435,-594 367,-368 594,-875 594,-1435zm-470 -1559c399,399 646,950 646,1559 0,609 -247,1160 -646,1559 -399,399 -950,646 -1559,646 -609,0 -1160,-247 -1559,-646 -399,-399 -646,-950 -646,-1559 0,-609 247,-1160 646,-1559 399,-399 950,-646 1559,-646 609,0 1160,247 1559,646z"
  />
</svg>
