<?xml version="1.0" encoding="UTF-8" standalone="no"?>
<svg
   xmlns:svg="http://www.w3.org/2000/svg"
   xmlns="http://www.w3.org/2000/svg"
   version="1.1"
   viewBox="0 0 2.1521999 4.0519995">
  <path
     transform="matrix(0.004,0,0,-0.004,1.3162,0.03999969)"
     d="m 0,0 c 0,-198 209,-335 209,-533 0,-71 -16,-141 -42,-207 -5,-8 -12,-12 -19,-12 -13,0 -26,11 -23,27 26,61 42,126 42,192 0,104 -95,208 -167,283 l -16,0 0,250 16,0 z" />
  <rect
     transform="translate(1.2512,1.9999997)"
     x="-0.064999998"
     y="-2"
     width="0.13"
     height="3.3122001" />
  <g
     transform="translate(-94.8335,-6.3453003)">
    <path
       transform="matrix(0.004,0,0,-0.004,94.8335,9.8453)"
       d="m 220,138 c 56,0 109,-29 109,-91 0,-72 -56,-121 -103,-149 -36,-21 -76,-36 -117,-36 -56,0 -109,29 -109,91 0,72 56,121 103,149 36,21 76,36 117,36 z" />
  </g>
</svg>
