<?xml version="1.0" encoding="UTF-8" standalone="no"?>
<svg
   xmlns:svg="http://www.w3.org/2000/svg"
   xmlns="http://www.w3.org/2000/svg"
   viewBox="0 0 270.99863 380.3338"
   version="1.1"
>
  <path
     d="m 186.68329,153.35591 c -6.42853,0.0373 -12.6836,0.49414 -18.52344,1.40235 -55.31251,8.5625 -96.312504,39.75 -91.687504,69.6875 4.625,29.9375 53.187504,47.3125 108.500004,38.75 48.3125,-7.5625 93.23194,-50.15356 84.27734,-75.31836 l -1.27343,-3.58203 c -6.80274,-19.11752 -46.57893,-31.14066 -81.29297,-30.93946 z m -3.14649,13.00782 c 28.13543,-0.49274 51.12616,14.41302 53.13477,35.75195 2.2163,23.5465 -21.95498,46.00933 -53.98828,50.17383 -32.0332,4.1646 -59.79728,-11.54715 -62.01368,-35.09375 -2.2163,-23.5465 21.95518,-46.00933 53.98828,-50.17383 3.00314,-0.39045 5.96835,-0.60723 8.87891,-0.6582 z"
  />
  <path
     d="m 187.28514,41.411471 c -6.42853,0.0373 -12.6836,0.49414 -18.52344,1.40234 -55.31251,8.5625 -96.312502,39.750003 -91.687502,69.687499 4.625,29.93751 53.187502,47.31251 108.500002,38.75001 48.3125,-7.5625 93.23194,-50.15357 84.27734,-75.318365 l -1.27343,-3.582032 C 261.77537,53.233401 221.99918,41.210261 187.28514,41.411471 Z m -3.14649,13.007812 c 28.13543,-0.492735 51.12616,14.413028 53.13477,35.751953 2.2163,23.546504 -21.95498,46.009324 -53.98828,50.173824 -32.0332,4.16461 -59.79728,-11.54715 -62.01368,-35.09375 -2.2163,-23.546496 21.95519,-46.009324 53.98829,-50.173824 3.00313,-0.39045 5.96834,-0.607231 8.8789,-0.658203 z" />
  <path
     d="m 187.28514,268.30962 c -6.42853,0.0373 -12.6836,0.49414 -18.52344,1.40234 -55.31251,8.5625 -96.312502,39.75 -91.687502,69.6875 4.625,29.9375 53.187502,47.3125 108.500002,38.75 48.3125,-7.5625 93.23194,-50.15356 84.27734,-75.31836 l -1.27343,-3.58203 c -6.80274,-19.11752 -46.57893,-31.14066 -81.29297,-30.93945 z m -3.14649,13.00781 c 28.13543,-0.49273 51.12616,14.41303 53.13477,35.75195 2.2163,23.5465 -21.95498,46.00933 -53.98828,50.17383 -32.0332,4.1646 -59.79728,-11.54715 -62.01368,-35.09375 -2.2163,-23.5465 21.95519,-46.00933 53.98829,-50.17383 3.00313,-0.39045 5.96834,-0.60723 8.8789,-0.6582 z" />
  <g
     transform="matrix(-5.5885111,0,0,-5.5885111,111.21213,51.381471)">
    <path
       d="M 5.2572593,5.9190231 2.0496812,2.5047126 6.0248405,4.5774753 C 11.03991,7.1924773 13.318603,7.1952888 17.036659,4.591062 20.833989,1.9313079 20.860013,3.0948961 17.081912,6.6147273 13.153748,10.274374 9.1262911,10.037419 5.2572593,5.9190231 Z" />
  </g>
</svg>
