<?xml version="1.0" encoding="UTF-8" standalone="no"?>
<svg
  xmlns:svg="http://www.w3.org/2000/svg"
  xmlns="http://www.w3.org/2000/svg"
  version="1.1"
  viewBox="0 0.126 4.6458253 5.005068"
>
  <path
    d="m 1.3161996,0.69193049 c 0,0.79200001 0.836,1.34000001 0.836,2.13200001 0,0.284 -0.064,0.564 -0.168,0.828 -0.02,0.032 -0.048,0.048 -0.076,0.048 -0.052,0 -0.104,-0.044 -0.092,-0.108 0.104,-0.244 0.168,-0.504 0.168,-0.768 0,-0.416 -0.38,-0.832 -0.668,-1.132 h -0.064 V 0.69193049 Z"
  />
  <rect
    height="3.3122001"
    width="0.13"
    y="0.65193039"
    x="1.1861997"
  />
  <g
    transform="translate(-94.8335,-5.6933693)"
  >
    <path
      d="m 220,138 c 56,0 109,-29 109,-91 0,-72 -56,-121 -103,-149 -36,-21 -76,-36 -117,-36 -56,0 -109,29 -109,91 0,72 56,121 103,149 36,21 76,36 117,36 z"
      transform="matrix(0.004,0,0,-0.004,94.8335,9.8453)"
    />
  </g>
  <path
    d="m 3.8098254,0.16599979 c 0,0.792 0.836,1.33999991 0.836,2.13199991 0,0.284 -0.064,0.564 -0.168,0.828 -0.02,0.032 -0.048,0.048 -0.076,0.048 -0.052,0 -0.104,-0.044 -0.092,-0.108 0.104,-0.244 0.168,-0.504 0.168,-0.768 0,-0.416 -0.38,-0.832 -0.668,-1.1319999 h -0.064 V 0.16599979 Z"
  />
  <rect
    x="3.6798255"
    y="0.126"
    width="0.13"
    height="3.3122001"
  />
  <g
    transform="translate(-92.339874,-6.2193003)"
  >
    <path
      transform="matrix(0.004,0,0,-0.004,94.8335,9.8453)"
      d="m 220,138 c 56,0 109,-29 109,-91 0,-72 -56,-121 -103,-149 -36,-21 -76,-36 -117,-36 -56,0 -109,29 -109,91 0,72 56,121 103,149 36,21 76,36 117,36 z"
    />
  </g>
  <g
    transform="matrix(0.07381512,-0.0130156,0.0130156,0.07381512,0.97649819,6.7653575)"
  >
    <g
      transform="translate(12,55)"
    >
      <path
        d="m -0.24989721,-77.336225 -3.20757809,-3.414311 3.97515929,2.072763 c 5.01506951,2.615002 7.29376251,2.617813 11.01181801,0.01359 3.79733,-2.659755 3.823354,-1.496166 0.04525,2.023665 -3.9281635,3.659647 -7.9556204,3.422692 -11.82465221,-0.695704 z"
      />
    </g>
  </g>
</svg>
