<?xml version="1.0" encoding="UTF-8" standalone="no"?>
<svg
  xmlns:svg="http://www.w3.org/2000/svg"
  xmlns="http://www.w3.org/2000/svg"
  version="1.1"
  viewBox="0 0 49.981858 65.426905"
>
  <g
    transform="rotate(-10,339.41109,-27.324266)"
  >
    <path
      d="M 25.049918,1.2602566 C 21.215361,1.0507966 19.91838,2.5237476 17.014865,4.7183007 13.296809,7.3225281 11.017418,7.319223 6.0023485,4.7042215 L 2.0266078,2.6307781 C 8.0826519,10.752941 12.826109,9.7576957 18.00125,6.4689155 22.905828,2.3490302 25.562381,3.3978649 29.429463,5.7788574 L 33.405544,7.8503765 30.19762,4.4367792 C 28.504918,2.6349812 26.781686,1.5749214 25.049918,1.2602566 Z"
    />
  </g>
  <g
    transform="matrix(12.346144,0,0,12.346144,0,5.861415)"
  >
    <rect
      transform="translate(1.2512,1.9999997)"
      x="-0.064999998"
      y="-2"
      width="0.13"
      height="3.3122001"
    />
    <g
      transform="translate(-94.8335,-6.3453003)"
    >
      <path
        transform="matrix(0.004,0,0,-0.004,94.8335,9.8453)"
        d="m 220,138 c 56,0 109,-29 109,-91 0,-72 -56,-121 -103,-149 -36,-21 -76,-36 -117,-36 -56,0 -109,29 -109,91 0,72 56,121 103,149 36,21 76,36 117,36 z"
      />
    </g>
  </g>
  <g
    transform="matrix(12.346144,0,0,12.346144,33.474577,4e-6)"
  >
    <rect
      height="3.2080023"
      width="0.12479013"
      y="-1.8958027"
      x="-0.059790131"
      transform="translate(1.2512,1.9999997)"
    />
    <g
      transform="translate(-94.8335,-6.3453003)"
    >
      <path
        d="m 220,138 c 56,0 109,-29 109,-91 0,-72 -56,-121 -103,-149 -36,-21 -76,-36 -117,-36 -56,0 -109,29 -109,91 0,72 56,121 103,149 36,21 76,36 117,36 z"
        transform="matrix(0.004,0,0,-0.004,94.8335,9.8453)"
      />
    </g>
  </g>
  <path
    d="M 14.644996,5.861411 49.981859,0 49.727886,16.708621 c -23.901062,3.97107 -8.960975,1.520119 -34.950448,5.744594 L 14.644996,5.861406 Z M 48.04247,5.822721 c -31.668969,5.607756 0,0 -31.668969,5.607756 0.07053,9.050412 0.05284,6.770317 0.05284,6.770317 31.607417,-5.253065 0,0 31.607417,-5.253065"
  />
</svg>
