<?xml version="1.0" encoding="UTF-8" standalone="no"?>
<svg
  xmlns:svg="http://www.w3.org/2000/svg"
  xmlns="http://www.w3.org/2000/svg"
  viewBox="0 0.126 99.999998 100"
  version="1.1"
>
  <g
    transform="matrix(1.4332881,0,0,1.4332881,6.9359952,8.8451755)"
  >
    <g
      transform="rotate(-10,339.41109,-27.324266)"
    >
      <path
        d="M 27.04234,-0.13485242 C 23.207783,-0.34431242 21.910802,1.1286386 19.007287,3.3231917 15.289231,5.9274191 13.00984,5.924114 7.9947707,3.3091125 L 4.01903,1.2356691 C 10.075074,9.357832 14.818531,8.3625867 19.993672,5.0738065 24.89825,0.95392118 27.554803,2.0027559 31.421885,4.3837484 L 35.397966,6.4552675 32.190042,3.0416702 C 30.49734,1.2398722 28.774108,0.17981238 27.04234,-0.13485242 Z"
      />
    </g>
    <g
      transform="matrix(12.346144,0,0,12.346144,0,5.861415)"
    >
      <rect
        transform="translate(1.2512,1.9999997)"
        x="-0.064999998"
        y="-2"
        width="0.13"
        height="3.3122001"
      />
      <g
        transform="translate(-94.8335,-6.3453003)"
      >
        <path
          transform="matrix(0.004,0,0,-0.004,94.8335,9.8453)"
          d="m 220,138 c 56,0 109,-29 109,-91 0,-72 -56,-121 -103,-149 -36,-21 -76,-36 -117,-36 -56,0 -109,29 -109,91 0,72 56,121 103,149 36,21 76,36 117,36 z"
        />
      </g>
    </g>
    <g
      transform="matrix(12.346144,0,0,12.346144,33.474577,4e-6)"
    >
      <rect
        height="3.2080023"
        width="0.12479013"
        y="-1.8958027"
        x="-0.059790131"
        transform="translate(1.2512,1.9999997)"
      />
      <g
        transform="translate(-94.8335,-6.3453003)"
      >
        <path
          d="m 220,138 c 56,0 109,-29 109,-91 0,-72 -56,-121 -103,-149 -36,-21 -76,-36 -117,-36 -56,0 -109,29 -109,91 0,72 56,121 103,149 36,21 76,36 117,36 z"
          transform="matrix(0.004,0,0,-0.004,94.8335,9.8453)"
        />
      </g>
    </g>
    <path
      d="M 14.644996,5.861411 49.981859,0 49.727886,16.708621 c -23.901062,3.97107 -8.960975,1.520119 -34.950448,5.744594 L 14.644996,5.861406 Z M 48.04247,5.822721 c -31.668969,5.607756 0,0 -31.668969,5.607756 0.07053,9.050412 0.05284,6.770317 0.05284,6.770317 31.607417,-5.253065 0,0 31.607417,-5.253065"
    />
  </g>
</svg>
