<?xml version="1.0" encoding="UTF-8" standalone="no"?>
<svg
   xmlns:svg="http://www.w3.org/2000/svg"
   xmlns="http://www.w3.org/2000/svg"
   viewBox="0 0 4233.9999 4233.9999"
   style="image-rendering:optimizeQuality;shape-rendering:geometricPrecision;text-rendering:geometricPrecision"
   version="1.1">
  <g
     transform="translate(-2455,-2455)">
    <path
       d="m 2625,2621 c -46,0 -83,-37 -83,-83 0,-46 37,-83 83,-83 1122,0 2138,455 2873,1191 736,735 1191,1751 1191,2873 0,46 -37,83 -83,83 -46,0 -83,-37 -83,-83 C 6523,5443 6087,4468 5381,3763 4676,3058 3701,2621 2625,2621 Z m 455,2621 c 173,0 329,69 442,183 113,113 183,269 183,441 0,173 -70,329 -183,442 -113,113 -269,183 -442,183 -172,0 -329,-70 -442,-183 -113,-113 -183,-269 -183,-442 0,-172 70,-328 183,-441 113,-114 270,-183 442,-183 z m 320,305 c -82,-82 -195,-133 -320,-133 -125,0 -238,51 -320,133 -81,82 -132,195 -132,319 0,125 51,238 132,320 82,82 195,132 320,132 125,0 238,-50 320,-132 82,-82 132,-195 132,-320 0,-124 -50,-237 -132,-319 z M 2542,4027 c -48,0 -87,-38 -87,-86 0,-48 39,-87 87,-87 759,0 1446,308 1943,805 497,498 805,1185 805,1943 0,48 -39,87 -87,87 -48,0 -86,-39 -86,-87 0,-711 -288,-1355 -754,-1821 -466,-466 -1110,-754 -1821,-754 z" />
  </g>
</svg>
