<?xml version="1.0" encoding="UTF-8" standalone="no"?>
<svg
   xmlns:svg="http://www.w3.org/2000/svg"
   xmlns="http://www.w3.org/2000/svg"
   viewBox="0 0 2199.9999 2080.9999"
   style="clip-rule:evenodd;fill-rule:evenodd;image-rendering:optimizeQuality;shape-rendering:geometricPrecision;text-rendering:geometricPrecision"
   version="1.1">
  <g
    transform="translate(-3472,-3531)"
  >
    <path
      d="m 5042,3531 h 542 c 49,0 88,39 88,88 v 1905 c 0,49 -39,88 -88,88 h -542 c -49,0 -88,-39 -88,-88 v -791 -322 -792 c 0,-49 39,-88 88,-88 z m 454,176 h -366 v 1729 h 366 z M 3648,5363 4258.3007,4970.8409 4879,4572 3648,3780 Z m 1306,-630 -1342,862 c -14,11 -32,17 -52,17 -49,0 -88,-39 -88,-88 v -1905 0 c 0,-16 4,-33 14,-48 26,-40 81,-52 122,-26 l 1346,866 z"
    />
  </g>
</svg>
