<?xml version="1.0" encoding="UTF-8" standalone="no"?>
<svg
   xmlns:dc="http://purl.org/dc/elements/1.1/"
   xmlns:cc="http://creativecommons.org/ns#"
   xmlns:rdf="http://www.w3.org/1999/02/22-rdf-syntax-ns#"
   xmlns:svg="http://www.w3.org/2000/svg"
   xmlns="http://www.w3.org/2000/svg"
   xmlns:sodipodi="http://sodipodi.sourceforge.net/DTD/sodipodi-0.dtd"
   xmlns:inkscape="http://www.inkscape.org/namespaces/inkscape"
   viewBox="0 0 2199.9999 2199.9999"
   style="clip-rule:evenodd;fill-rule:evenodd;image-rendering:optimizeQuality;shape-rendering:geometricPrecision;text-rendering:geometricPrecision"
   version="1.1"
   id="svg6"
   sodipodi:docname="next.svg"
   inkscape:version="0.92.2 5c3e80d, 2017-08-06">
  <metadata
     id="metadata12">
    <rdf:RDF>
      <cc:Work
         rdf:about="">
        <dc:format>image/svg+xml</dc:format>
        <dc:type
           rdf:resource="http://purl.org/dc/dcmitype/StillImage" />
      </cc:Work>
    </rdf:RDF>
  </metadata>
  <defs
     id="defs10" />
  <sodipodi:namedview
     pagecolor="#ffffff"
     bordercolor="#666666"
     borderopacity="1"
     objecttolerance="10"
     gridtolerance="10"
     guidetolerance="10"
     inkscape:pageopacity="0"
     inkscape:pageshadow="2"
     inkscape:window-width="640"
     inkscape:window-height="480"
     id="namedview8"
     showgrid="false"
     inkscape:zoom="0.10727273"
     inkscape:cx="1100"
     inkscape:cy="1100"
     inkscape:window-x="0"
     inkscape:window-y="0"
     inkscape:window-maximized="0"
     inkscape:current-layer="svg6" />
  <g
     transform="translate(-3472,-3471.5)"
     id="g4">
    <path
       d="m 5042,3531 h 542 c 49,0 88,39 88,88 v 1905 c 0,49 -39,88 -88,88 h -542 c -49,0 -88,-39 -88,-88 v -791 -322 -792 c 0,-49 39,-88 88,-88 z m -88,1202 -1342,862 c -14,11 -32,17 -52,17 -49,0 -88,-39 -88,-88 v -1905 0 c 0,-16 4,-33 14,-48 26,-40 81,-52 122,-26 l 1346,866 z"
       id="path2"
       inkscape:connector-curvature="0"
       sodipodi:nodetypes="sssssssccssccsscccccc" />
  </g>
</svg>
