<?xml version="1.0" encoding="UTF-8" standalone="no"?>
<svg
   xmlns:dc="http://purl.org/dc/elements/1.1/"
   xmlns:cc="http://creativecommons.org/ns#"
   xmlns:rdf="http://www.w3.org/1999/02/22-rdf-syntax-ns#"
   xmlns:svg="http://www.w3.org/2000/svg"
   xmlns="http://www.w3.org/2000/svg"
   xmlns:sodipodi="http://sodipodi.sourceforge.net/DTD/sodipodi-0.dtd"
   xmlns:inkscape="http://www.inkscape.org/namespaces/inkscape"
   viewBox="0 0.126 4.6924611 5.0301286"
   version="1.1"
   id="svg16"
   sodipodi:docname="party-attending-disconnected.svg"
   inkscape:version="0.92.2 5c3e80d, 2017-08-06">
  <metadata
     id="metadata22">
    <rdf:RDF>
      <cc:Work
         rdf:about="">
        <dc:format>image/svg+xml</dc:format>
        <dc:type
           rdf:resource="http://purl.org/dc/dcmitype/StillImage" />
      </cc:Work>
    </rdf:RDF>
  </metadata>
  <defs
     id="defs20" />
  <sodipodi:namedview
     pagecolor="#ffffff"
     bordercolor="#666666"
     borderopacity="1"
     objecttolerance="10"
     gridtolerance="10"
     guidetolerance="10"
     inkscape:pageopacity="0"
     inkscape:pageshadow="2"
     inkscape:window-width="640"
     inkscape:window-height="480"
     id="namedview18"
     showgrid="false"
     inkscape:zoom="46.917291"
     inkscape:cx="2.3462305"
     inkscape:cy="2.5150642"
     inkscape:window-x="0"
     inkscape:window-y="0"
     inkscape:window-maximized="0"
     inkscape:current-layer="svg16" />
  <path
     d="m 3.8564608,0.16599999 c 0,0.792 0.836,1.34000001 0.836,2.13200001 0,0.284 -0.064,0.564 -0.168,0.828 -0.02,0.032 -0.048,0.048 -0.076,0.048 -0.052,0 -0.104,-0.044 -0.092,-0.108 0.104,-0.244 0.168,-0.504 0.168,-0.768 0,-0.416 -0.38,-0.832 -0.668,-1.132 h -0.064 V 0.16599999 Z"
     id="path2" />
  <g
     transform="translate(-92.293239,-6.2193)"
     id="g8">
    <path
       d="m 220,138 c 56,0 109,-29 109,-91 0,-72 -56,-121 -103,-149 -36,-21 -76,-36 -117,-36 -56,0 -109,29 -109,91 0,72 56,121 103,149 36,21 76,36 117,36 z"
       transform="matrix(0.004,0,0,-0.004,94.8335,9.8453)"
       id="path6" />
  </g>
  <a
     transform="translate(-16.2264,-1.8125883)"
     id="a12">
    <path
       d="M 365,0 H 10 C 4,0 0,4 0,10 v 136 c 0,6 4,10 10,10 h 355 c 6,0 10,-4 10,-10 V 10 C 375,4 371,0 365,0 Z"
       transform="matrix(0.004,0,0,-0.004,16.2264,5.8953)"
       id="path10" />
  </a>
  <rect
     y="4.7937884"
     x="0.021314103"
     height="0.10657052"
     width="4.6677885"
     id="rect18" />
</svg>
