<?xml version="1.0" encoding="UTF-8" standalone="no"?>
<svg
   xmlns:svg="http://www.w3.org/2000/svg"
   xmlns="http://www.w3.org/2000/svg"
   viewBox="0 0.126 4.6458259 5.0301286"
   version="1.1">
  <path
     d="m 1.3162,0.30827686 c 0,0.79200004 0.836,1.34000004 0.836,2.13200004 0,0.284 -0.064,0.564 -0.168,0.828 -0.02,0.032 -0.048,0.048 -0.076,0.048 -0.052,0 -0.104,-0.044 -0.092,-0.108 0.104,-0.244 0.168,-0.504 0.168,-0.768 0,-0.416 -0.38,-0.832 -0.668,-1.132 H 1.2522 V 0.30827686 Z"
     style="fill:#000000" />
  <rect
     x="1.1862"
     y="0.26827687"
     width="0.13"
     height="3.3122001"
     style="fill:#000000" />
  <g
     transform="translate(-94.8335,-6.0770231)">
    <path
       transform="matrix(0.004,0,0,-0.004,94.8335,9.8453)"
       d="m 220,138 c 56,0 109,-29 109,-91 0,-72 -56,-121 -103,-149 -36,-21 -76,-36 -117,-36 -56,0 -109,29 -109,91 0,72 56,121 103,149 36,21 76,36 117,36 z"
       style="fill:#000000" />
  </g>
  <path
     style="fill:#000000"
     d="m 3.8098258,0.16599999 c 0,0.792 0.836,1.34000001 0.836,2.13200001 0,0.284 -0.064,0.564 -0.168,0.828 -0.02,0.032 -0.048,0.048 -0.076,0.048 -0.052,0 -0.104,-0.044 -0.092,-0.108 0.104,-0.244 0.168,-0.504 0.168,-0.768 0,-0.416 -0.38,-0.832 -0.668,-1.132 h -0.064 V 0.16599999 Z" />
  <rect
     style="fill:#000000"
     height="3.3122001"
     width="0.13"
     y="0.126"
     x="3.6798258" />
  <g
     transform="translate(-92.339874,-6.2193)">
    <path
       style="fill:#000000"
       d="m 220,138 c 56,0 109,-29 109,-91 0,-72 -56,-121 -103,-149 -36,-21 -76,-36 -117,-36 -56,0 -109,29 -109,91 0,72 56,121 103,149 36,21 76,36 117,36 z"
       transform="matrix(0.004,0,0,-0.004,94.8335,9.8453)" />
  </g>
  <g
     transform="matrix(0.07495384,0,0,0.07495384,0.57972608,6.5848325)">
    <g
       transform="translate(12,55)">
      <path
         d="m -0.24989721,-77.336225 -3.20757809,-3.414311 3.97515929,2.072763 c 5.01506951,2.615002 7.29376251,2.617813 11.01181801,0.01359 3.79733,-2.659755 3.823354,-1.496166 0.04525,2.023665 -3.9281635,3.659647 -7.9556204,3.422692 -11.82465221,-0.695704 z"
         style="fill:#000000" />
    </g>
  </g>
</svg>
