<?xml version="1.0" encoding="UTF-8" standalone="no"?>
<svg
  xmlns:svg="http://www.w3.org/2000/svg"
  xmlns="http://www.w3.org/2000/svg"
  version="1.1"
  viewBox="0 0.126 4.6253529 5.24254"
>
  <g
    transform="matrix(0.07495384,0,0,0.07495384,0.38951532,6.7971391)"
  >
    <g
      transform="translate(12,55)"
    >
      <path
        d="m 22.575726,-84.3479 c -3.050865,-0.501679 -5.991034,1.309803 -7.826861,3.626885 -2.93949,1.815583 -6.013593,4.64861 -9.7512118,3.793052 -4.03496875,-0.93915 -7.5043593,-3.34614 -10.7554874,-5.801406 -1.9815453,-1.360093 -4.6999538,-1.870908 -6.8368088,-0.53991 -1.976109,0.921806 -4.047849,2.320709 -4.602093,4.566637 2.671514,-0.256604 4.526002,-3.31658 7.381557,-2.616409 3.6261873,0.428715 6.8417916,2.424255 9.80444462,4.411019 2.37352338,2.391466 6.39225218,3.955562 9.45090728,1.884578 2.4285811,-1.526003 4.2595341,-3.862875 6.8550921,-5.148793 2.317718,-1.539547 5.427345,-2.172747 7.992993,-0.857426 3.651991,1.233721 6.735589,3.612967 9.841044,5.80537 2.407407,1.266679 5.539496,0.839212 7.521997,-1.021798 1.321994,-0.523209 3.969943,-2.77867 2.354766,-3.681396 -2.522322,1.859078 -5.838792,3.677919 -9.004455,2.321477 -2.705004,-1.010664 -5.282159,-2.397888 -7.695401,-3.962072 -1.37476,-1.207398 -2.8472,-2.513629 -4.730483,-2.779808 z"
        style="fill:#000000;stroke-width:1"
      />
    </g>
  </g>
  <g
    transform="matrix(0.080249,0,0,0.080249,0.25200597,0.126)"
    style="fill:#000000"
  >
    <g
      id="g312"
      style="fill:#000000"
      transform="matrix(12.346144,0,0,12.346144,0,8.7e-6)"
    >
      <rect
        transform="translate(1.2512,1.9999997)"
        x="-0.064999998"
        y="-2"
        width="0.13"
        height="3.3122001"
        style="fill:#000000"
      />
      <g
        style="fill:#000000"
        transform="translate(-94.8335,-6.3453003)"
      >
        <path
          transform="matrix(0.004,0,0,-0.004,94.8335,9.8453)"
          d="m 220,138 c 56,0 109,-29 109,-91 0,-72 -56,-121 -103,-149 -36,-21 -76,-36 -117,-36 -56,0 -109,29 -109,91 0,72 56,121 103,149 36,21 76,36 117,36 z"
          style="fill:#000000"
        />
      </g>
    </g>
    <g
      transform="matrix(12.346144,0,0,12.346144,33.474577,0.2118731)"
      style="fill:#000000"
    >
      <rect
        style="fill:#000000"
        height="3.3122001"
        width="0.13"
        y="-2"
        x="-0.064999998"
        transform="translate(1.2512,1.9999997)"
      />
      <g
        transform="translate(-94.8335,-6.3453003)"
        style="fill:#000000"
      >
        <path
          style="fill:#000000"
          d="m 220,138 c 56,0 109,-29 109,-91 0,-72 -56,-121 -103,-149 -36,-21 -76,-36 -117,-36 -56,0 -109,29 -109,91 0,72 56,121 103,149 36,21 76,36 117,36 z"
          transform="matrix(0.004,0,0,-0.004,94.8335,9.8453)"
        />
      </g>
    </g>
    <path
      id="path322"
      style="fill:#000000;stroke-width:0.96333116"
      d="m 14.644996,5e-6 h 34.679919 c 0.218474,16.607345 0,0 0.218474,16.607345 L 31.984957,16.69774 14.777438,16.591808 C 14.644996,0 14.777438,16.591808 14.644996,0 Z m 32.111039,6.9393276 c -15.265206,0.07849 -13.571446,0.07104 -29.546351,0.04482 0.07053,9.0504134 -0.01148,4.9049874 -0.01148,4.9049874 15.847872,-0.04173 14.084328,0.06537 29.686232,-0.119213 -0.277462,-12.3987269 0.06727,4.245478 -0.128398,-4.8305974"
    />
  </g>
</svg>
