<?xml version="1.0" encoding="UTF-8" standalone="no"?>
<svg
  xmlns:svg="http://www.w3.org/2000/svg"
  xmlns="http://www.w3.org/2000/svg"
  version="1.1"
  viewBox="0 0 49.724572 59.720548"
>
  <g
    transform="translate(13.597326,50.526425)"
  >
    <path
      style="fill:#000000"
      d="M 5.2572593,5.9190231 2.0496812,2.5047126 6.0248405,4.5774753 C 11.03991,7.1924773 13.318603,7.1952888 17.036659,4.591062 20.833989,1.9313079 20.860013,3.0948961 17.081912,6.6147273 13.153748,10.274374 9.1262911,10.037419 5.2572593,5.9190231 Z"
    />
  </g>
  <g
    style="fill:#000000"
    transform="matrix(12.346144,0,0,12.346144,0,8.7e-6)"
  >
    <rect
      transform="translate(1.2512,1.9999997)"
      x="-0.064999998"
      y="-2"
      width="0.13"
      height="3.3122001"
      style="fill:#000000"
    />
    <g
      style="fill:#000000"
      transform="translate(-94.8335,-6.3453003)"
    >
      <path
        transform="matrix(0.004,0,0,-0.004,94.8335,9.8453)"
        d="m 220,138 c 56,0 109,-29 109,-91 0,-72 -56,-121 -103,-149 -36,-21 -76,-36 -117,-36 -56,0 -109,29 -109,91 0,72 56,121 103,149 36,21 76,36 117,36 z"
        style="fill:#000000"
      />
    </g>
  </g>
  <g
    transform="matrix(12.346144,0,0,12.346144,33.474577,0.2118731)"
    style="fill:#000000"
  >
    <rect
      style="fill:#000000"
      height="3.3122001"
      width="0.13"
      y="-2"
      x="-0.064999998"
      transform="translate(1.2512,1.9999997)"
    />
    <g
      transform="translate(-94.8335,-6.3453003)"
      style="fill:#000000"
    >
      <path
        style="fill:#000000"
        d="m 220,138 c 56,0 109,-29 109,-91 0,-72 -56,-121 -103,-149 -36,-21 -76,-36 -117,-36 -56,0 -109,29 -109,91 0,72 56,121 103,149 36,21 76,36 117,36 z"
        transform="matrix(0.004,0,0,-0.004,94.8335,9.8453)"
      />
    </g>
  </g>
  <path
    style="fill:#000000;stroke-width:0.96333116"
    d="m 14.644996,5e-6 h 34.679919 c 0.218474,16.607345 0,0 0.218474,16.607345 L 31.984957,16.69774 14.777438,16.591808 C 14.644996,0 14.777438,16.591808 14.644996,0 Z m 32.111039,6.9393276 c -15.265206,0.07849 -13.571446,0.07104 -29.546351,0.04482 0.07053,9.0504134 -0.01148,4.9049874 -0.01148,4.9049874 15.847872,-0.04173 14.084328,0.06537 29.686232,-0.119213 -0.277462,-12.3987269 0.06727,4.245478 -0.128398,-4.8305974"
  />
</svg>
