<?xml version="1.0" encoding="UTF-8" standalone="no"?>
<svg
  xmlns:svg="http://www.w3.org/2000/svg"
  xmlns="http://www.w3.org/2000/svg"
  viewBox="0 0 3.933904 0.64378781"
  version="1.1"
>
  <g
    transform="translate(-16.2264,-5.2713)"
  >
    <path
      style="fill:currentColor"
      d="M 365,0 H 10 C 4,0 0,4 0,10 v 136 c 0,6 4,10 10,10 h 355 c 6,0 10,-4 10,-10 V 10 C 375,4 371,0 365,0 Z"
      transform="matrix(0.004,0,0,-0.004,16.2264,5.8953)"
    />
  </g>
  <g
    transform="translate(-13.792496,-5.2515122)"
  >
    <path
      transform="matrix(0.004,0,0,-0.004,16.2264,5.8953)"
      d="M 365,0 H 10 C 4,0 0,4 0,10 v 136 c 0,6 4,10 10,10 h 355 c 6,0 10,-4 10,-10 V 10 C 375,4 371,0 365,0 Z"
      style="fill:currentColor"
    />
  </g>
</svg>
