<?xml version="1.0" encoding="UTF-8" standalone="no"?>
<svg
   xmlns:svg="http://www.w3.org/2000/svg"
   xmlns="http://www.w3.org/2000/svg"
   version="1.1"
   style="clip-rule:evenodd;fill-rule:evenodd;image-rendering:optimizeQuality;shape-rendering:geometricPrecision;text-rendering:geometricPrecision"
   viewBox="0 0 1657.9999 1657.9999">
  <g
     transform="translate(-3743,-3743)">
    <path
      d="M 3831,3743 h 543 c 49,0 88,39 88,88 v 1482 c 0,49 -39,88 -88,88 h -543 c -49,0 -88,-39 -88,-88 V 3831 c 0,-49 39,-88 88,-88 z m 455,176 h -367 v 1306 h 367 z m 484,-176 h 543 c 49,0 88,39 88,88 v 1482 c 0,49 -39,88 -88,88 h -543 c -49,0 -88,-39 -88,-88 V 3831 c 0,-49 39,-88 88,-88 z m 455,176 h -367 v 1306 h 367 z"
    />
  </g>
</svg>
