<?xml version="1.0" encoding="UTF-8" standalone="no"?>
<svg
   xmlns:svg="http://www.w3.org/2000/svg"
   xmlns="http://www.w3.org/2000/svg"
   viewBox="0 0 2080.7722 2080.7722"
   style="clip-rule:evenodd;fill-rule:evenodd;image-rendering:optimizeQuality;shape-rendering:geometricPrecision;text-rendering:geometricPrecision"
   version="1.1">
  <g
     transform="translate(-3233.5713,-3531.2278)">
    <path
       d="M 3648,5363 4879,4572 3648,3780 Z m -36,232 c -14,11 -32,17 -52,17 -49,0 -88,-39 -88,-88 v -1905 0 c 0,-16 4,-33 14,-48 26,-40 81,-52 122,-26 567.4233,315.5455 1395.2655,934.8411 1429.2366,959.0457 34.6354,24.6779 29.879,31.1801 37.3045,70.0595 7.9536,41.6444 -19.6035,85.8883 -57.4606,115.7788 C 4959.4747,4735.3673 4077.4111,5292.9447 3612,5595 Z" />
  </g>
</svg>
