<?xml version="1.0" encoding="UTF-8" standalone="no"?>
<svg
  xmlns:svg="http://www.w3.org/2000/svg"
  xmlns="http://www.w3.org/2000/svg"
  version="1.1"
  viewBox="0 0 2080.7722 2080.7722"
>
  <g transform="translate(-3233.5713,-3531.2278)">
    <path
      d="m 3612,5595 c -14,11 -32,17 -52,17 -49,0 -88,-39 -88,-88 v -1905 0 c 0,-16 4,-33 14,-48 26,-40 81,-52 122,-26 567.4233,315.5455 1395.2655,934.8411 1429.2366,959.0457 34.6354,24.6779 29.879,31.1801 37.3045,70.0595 7.9536,41.6444 -19.6035,85.8883 -57.4606,115.7788 C 4959.4747,4735.3673 4077.4111,5292.9447 3612,5595 Z"
    />
  </g>
  <g transform="matrix(1.8721372,0,0,1.8721372,357.0795,588.95849)">
    <path
      style="fill:#ffffff;"
      d="m 255.76,44.764 c -6.176,0 -12.353,1.384 -17.137,4.152 L 85.87,137.276 c -9.57,5.536 -9.57,14.29 0,19.826 l 152.753,88.36 c 9.57,5.536 24.703,5.536 34.272,0 l 152.753,-88.36 c 9.57,-5.535 9.57,-14.29 0,-19.825 L 272.895,48.917 c -4.785,-2.77 -10.96,-4.153 -17.135,-4.153 z m 1.86,12.423 a 31.953,18.96 0 0 1 21.194,5.536 31.953,18.96 0 0 1 -45.187,26.812 31.953,18.96 0 0 1 23.992,-32.347 z m 58.43,35.208 a 31.953,18.96 0 0 1 22.13,32.363 31.953286,18.96017 0 0 1 -45.19,-26.813 31.953,18.96 0 0 1 23.06,-5.55 z m -177.603,34.98 a 31.953,18.96 0 0 1 0.002,0 31.953,18.96 0 0 1 21.195,5.535 31.953286,18.96017 0 0 1 -45.19,26.813 31.953,18.96 0 0 1 23.992,-32.348 z m 237.903,0.26 a 31.953,18.96 0 0 1 0.002,0 31.953,18.96 0 0 1 21.195,5.535 31.953,18.96 0 0 1 -45.19,26.812 31.953,18.96 0 0 1 23.993,-32.347 z m -179.03,35.21 a 31.953,18.96 0 0 1 22.127,32.362 31.953,18.96 0 1 1 -45.187,-26.812 31.953,18.96 0 0 1 23.06,-5.55 z M 75.67,173.84 c -5.753,-0.155 -9.664,4.336 -9.664,12.28 v 157.696 c 0,11.052 7.57,24.163 17.14,29.69 l 146.93,84.848 c 9.57,5.526 17.14,1.156 17.14,-9.895 V 290.76 c 0,-11.052 -7.57,-24.16 -17.14,-29.688 L 83.146,176.225 c -2.69,-1.555 -5.225,-2.327 -7.476,-2.387 z m 360.773,0.002 c -2.25,0.06 -4.783,0.83 -7.474,2.385 l -146.935,84.847 c -9.57,5.527 -17.14,18.638 -17.14,29.69 v 157.7 c 0,11.05 7.57,15.418 17.14,9.89 L 428.97,373.51 c 9.57,-5.527 17.137,-18.636 17.137,-29.688 v -157.7 c 0,-7.942 -3.91,-12.432 -9.664,-12.278 z M 89.297,195.77 a 31.236,18.008 58.094 0 1 33.818,41.183 31.236,18.008 58.094 1 1 -45,-25.98 31.236,18.008 58.094 0 1 11.182,-15.203 z m 333.52,0 a 18.008,31.236 31.906 0 1 11.183,15.203 18.008,31.236 31.906 0 1 -45,25.98 18.008,31.236 31.906 0 1 33.818,-41.183 z m -165.198,2.314 a 31.953,18.96 0 0 1 21.194,5.535 31.953,18.96 0 0 1 -45.187,26.812 31.953,18.96 0 0 1 23.992,-32.348 z m -56.323,62.35 a 31.236,18.008 58.094 0 1 33.818,41.183 31.236,18.008 58.094 1 1 -45,-25.98 31.236,18.008 58.094 0 1 11.182,-15.203 z m 109.52,0 a 18.008,31.236 31.906 0 1 11.184,15.203 18.008,31.236 31.906 0 1 -45,25.98 18.008,31.236 31.906 0 1 33.818,-41.183 z M 145.296,289.1 a 31.236,18.008 58.094 0 1 33.818,41.183 31.236,18.008 58.094 0 1 -45,-25.98 31.236,18.008 58.094 0 1 11.182,-15.203 z m -55.998,29.38 a 31.236,18.008 58.094 0 1 33.818,41.184 31.236,18.008 58.094 1 1 -45,-25.98 31.236,18.008 58.094 0 1 11.182,-15.204 z m 333.52,0 a 18.008,31.236 31.906 0 1 11.182,15.204 18.008,31.236 31.906 0 1 -45,25.98 18.008,31.236 31.906 0 1 33.818,-41.184 z m -221.52,64.663 a 31.236,18.008 58.094 0 1 33.818,41.183 31.236,18.008 58.094 1 1 -45,-25.98 31.236,18.008 58.094 0 1 11.182,-15.203 z m 109.52,0 a 18.008,31.236 31.906 0 1 11.182,15.203 18.008,31.236 31.906 0 1 -45,25.98 18.008,31.236 31.906 0 1 33.818,-41.183 z"
    />
  </g>
</svg>
