<?xml version="1.0" encoding="UTF-8" standalone="no"?>
<svg
  xmlns:svg="http://www.w3.org/2000/svg"
  xmlns="http://www.w3.org/2000/svg"
  version="1.1"
  viewBox="0 0 1637.6194 2042.4202"
  width="1637.6195"
  height="2042.4203"
>
  <path
    d="m 39.255247,1103.0313 c -56.06,-33.6324 -51.0924,-125.98017 8.608,-153.25057 C 538.99395,633.86433 1030.1245,317.94783 1521.2552,2.0313307 c 45.6806,-10.0234 105.2741,17.8183003 115.0078,66.5062003 7.2067,27.0278 -15.7517,40.325499 -34.6575,52.546299 -429.4222,303.7502 -858.84435,607.5005 -1288.26655,911.25077 178.2569,129.8265 362.0913,251.9205 542.9324,378.1389 233.28355,162.6703 469.65195,321.2197 697.03465,492.1388 50.9071,22.9953 50.5113,95.9622 8.939,128.0195 -40.0019,31.3422 -83.7154,-7.7963 -120.2224,-25.1851 C 1188.2679,1857.0763 944.43615,1692.5297 697.80065,1532.7888 478.44195,1389.2983 259.71185,1244.8355 39.255247,1103.0313 Z"
  />
</svg>
