<?xml version="1.0" encoding="UTF-8" standalone="no"?>
<svg
   xmlns:dc="http://purl.org/dc/elements/1.1/"
   xmlns:cc="http://creativecommons.org/ns#"
   xmlns:rdf="http://www.w3.org/1999/02/22-rdf-syntax-ns#"
   xmlns:svg="http://www.w3.org/2000/svg"
   xmlns="http://www.w3.org/2000/svg"
   xmlns:sodipodi="http://sodipodi.sourceforge.net/DTD/sodipodi-0.dtd"
   xmlns:inkscape="http://www.inkscape.org/namespaces/inkscape"
   version="1.1"
   style="clip-rule:evenodd;fill-rule:evenodd;image-rendering:optimizeQuality;shape-rendering:geometricPrecision;text-rendering:geometricPrecision"
   viewBox="0 0 2199.9999 2199.9999"
   id="svg8"
   sodipodi:docname="prev.svg"
   inkscape:version="0.92.2 5c3e80d, 2017-08-06">
  <metadata
     id="metadata14">
    <rdf:RDF>
      <cc:Work
         rdf:about="">
        <dc:format>image/svg+xml</dc:format>
        <dc:type
           rdf:resource="http://purl.org/dc/dcmitype/StillImage" />
      </cc:Work>
    </rdf:RDF>
  </metadata>
  <defs
     id="defs12" />
  <sodipodi:namedview
     pagecolor="#ffffff"
     bordercolor="#666666"
     borderopacity="1"
     objecttolerance="10"
     gridtolerance="10"
     guidetolerance="10"
     inkscape:pageopacity="0"
     inkscape:pageshadow="2"
     inkscape:window-width="640"
     inkscape:window-height="480"
     id="namedview10"
     showgrid="false"
     inkscape:zoom="0.10727273"
     inkscape:cx="1100"
     inkscape:cy="1100"
     inkscape:window-x="0"
     inkscape:window-y="0"
     inkscape:window-maximized="0"
     inkscape:current-layer="svg8" />
  <g
     transform="translate(-3472,-3471.5)"
     id="g6">
    <path
       d="M 5532,5595 4054,4646 c -40,-26 -52,-81 -26,-122 7,-11 17,-20 28,-27 l 1480,-952 c 41,-26 96,-14 122,26 10,15 14,32 14,48 v 0 1905 c 0,49 -39,88 -88,88 -20,0 -38,-6 -52,-17 z"
       id="path2"
       inkscape:connector-curvature="0"
       sodipodi:nodetypes="ccccccccssc" />
    <path
       d="m 3560,3531 h 542 c 49,0 88,39 88,88 v 1905 c 0,49 -39,88 -88,88 h -542 c -49,0 -88,-39 -88,-88 V 3619 c 0,-49 39,-88 88,-88 z"
       id="path4"
       inkscape:connector-curvature="0"
       sodipodi:nodetypes="sssssssss" />
  </g>
</svg>
