<?xml version="1.0" encoding="UTF-8" standalone="no"?>
<svg
   xmlns:svg="http://www.w3.org/2000/svg"
   xmlns="http://www.w3.org/2000/svg"
   version="1.1"
   style="clip-rule:evenodd;fill-rule:evenodd;image-rendering:optimizeQuality;shape-rendering:geometricPrecision;text-rendering:geometricPrecision"
   viewBox="0 0 2199.9999 2199.9999">
  <g
     transform="translate(-3472,-3471.5)">
    <path
      d="M 5532,5595 4054,4646 c -40,-26 -52,-81 -26,-122 7,-11 17,-20 28,-27 l 1480,-952 c 41,-26 96,-14 122,26 10,15 14,32 14,48 v 0 1905 c 0,49 -39,88 -88,88 -20,0 -38,-6 -52,-17 z M 4265,4572 5496,5363 V 3780 Z"
    />
    <path
      d="m 4014,3707 h -366 v 1729 h 366 z m -454,-176 h 542 c 49,0 88,39 88,88 v 1905 c 0,49 -39,88 -88,88 h -542 c -49,0 -88,-39 -88,-88 V 3619 c 0,-49 39,-88 88,-88 z"
    />
  </g>
</svg>
