<?xml version="1.0" encoding="UTF-8" standalone="no"?>
<svg
  xmlns:svg="http://www.w3.org/2000/svg"
  xmlns="http://www.w3.org/2000/svg"
  version="1.1"
  viewBox="0 0 42.830311 48.758087"
>
  <path
    d="M 14.616467,48.331981 C 11.604451,47.310597 12.276061,32.55968 12.238341,28.564343 11.233451,19.996739 11.510358,19.922109 10.425098,11.367008 9.7305576,7.7670647 4.3550376,8.1402577 4.0496276,11.785312 c -0.42127,3.59445 -5.8601,3.638774 -3.42462006,-0.238216 C 3.7849376,7.1458317 6.8978976,1.7594107 12.558028,0.36205471 c 3.4796,-0.882762 8.47811,-0.123618 9.3526,4.01257699 0.526452,8.1058683 6.127689,1.2386002 8.991803,-2.3924602 3.09166,-2.25751401 8.080907,-2.97814476 10.935727,-0.062396 1.46432,2.885401 1.38709,7.032974 -0.76496,9.5539355 -2.25218,1.928798 -6.15664,2.47443 -8.5834,0.597086 -1.12005,-2.6826585 -7.748599,0.836375 -8.614009,4.136839 -0.733584,0.807614 1.946141,19.702088 -4.304059,30.713969 -1.406528,2.478084 -2.949596,1.888849 -4.955263,1.410376 z"
  />
</svg>
