<?xml version="1.0" encoding="UTF-8" standalone="no"?>
<svg
  xmlns:svg="http://www.w3.org/2000/svg"
  xmlns="http://www.w3.org/2000/svg"
  height="50.883671"
  width="37.117599"
  version="1.0"
>
  <path
    d="m 17.25166,11.5011 c 0.0653,-1.74255 0.80593,-3.04949 2.22181,-3.92083 1.41583,-0.87125 3.11485,-1.3069 5.09707,-1.30694 0.97655,0.0291 1.76798,0.36309 2.37428,1.00199 0.60624,0.639 0.91846,1.40864 0.93665,2.30893 -0.0436,0.74065 -0.21785,1.30699 -0.52278,1.69903 -0.30499,0.39212 -0.47925,0.87133 -0.52278,1.43764 0.0363,0.9984 0.57358,1.87695 1.6119,2.63567 1.03826,0.75878 2.35972,1.15813 3.9644,1.19803 1.49205,-0.0399 2.64652,-0.56994 3.4634,-1.59012 0.81679,-1.0201 1.23066,-2.29074 1.24159,-3.81191 C 37.1426,8.55326 35.95907,6.08459 33.56667,3.74657 31.1742,1.40864 27.42037,0.15979 22.30518,0 17.83976,0.12712 14.13676,1.74627 11.19615,4.85748 c -2.94064,3.11129 -4.4654,6.95225 -4.5743,11.52288 0.21728,3.013 1.73828,5.31279 4.56301,6.89937 2.8247,1.58665 5.64942,3.20231 8.47416,4.84699 2.82469,1.64473 4.34569,4.06069 4.56301,7.24789 -0.11984,2.71192 -1.36143,4.78124 -3.72479,6.20798 -2.36342,1.42675 -5.12978,2.14557 -8.2991,2.15646 -1.27791,-0.007 -2.42512,-0.29769 -3.44162,-0.8713 C 7.74,42.29416 7.2027,41.48095 7.14463,40.42812 c 0.15973,-1.1363 0.79868,-2.00033 1.91685,-2.5921 1.11815,-0.59174 1.7571,-1.41221 1.91685,-2.46141 -0.0363,-1.61189 -0.57362,-2.96239 -1.6119,-4.05153 C 8.32812,30.23398 7.00666,29.66764 5.40204,29.62406 3.65218,29.70036 2.31619,30.4627 1.39408,31.91121 0.47195,33.35976 0.00726,35.037 0,36.94294 c 0.0908,3.93536 1.39044,7.21724 3.89905,9.84564 2.5086,2.62841 5.68156,3.99344 9.51891,4.09509 5.99376,-0.14158 10.99645,-2.12378 15.00807,-5.94659 4.01155,-3.82281 6.0954,-8.63671 6.25155,-14.44173 -0.21518,-3.78742 -1.72112,-6.66807 -4.51784,-8.64196 -2.79678,-1.97383 -5.59353,-3.66694 -8.39026,-5.07934"
  />
</svg>
