<?xml version="1.0" encoding="UTF-8" standalone="no"?>
<svg
  xmlns:svg="http://www.w3.org/2000/svg"
  xmlns="http://www.w3.org/2000/svg"
  viewBox="0 0 51.725991 68.274652"
  version="1.1"
>
  <g
    transform="rotate(165,9.833832,33.551587)"
    id="frown"
  >
    <path
      d="m -6.8149565,-0.18705785 -3.2075785,-3.41431055 3.9751597,2.0727627 c 5.0150695,2.615002 7.2937625,2.6178135 11.0118185,0.013587 3.79733,-2.6597541 3.823354,-1.4961659 0.045253,2.02366535 C 1.0815322,4.168293 -2.9459247,3.931338 -6.8149565,-0.18705785 Z"
      style="fill:#000000"
    />
  </g>
  <g
    transform="matrix(12.615965,0,0,12.615965,0,15.889508)"
    id="left-eye"
  >
    <rect
      transform="translate(1.2512,1.9999997)"
      x="-0.064999998"
      y="-2"
      width="0.13"
      height="3.3122001"
      id="left-eye-bar"
    />
    <g
      transform="translate(-94.8335,-6.3453003)"
      id="left-eye-ball"
    >
      <path
        transform="matrix(0.004,0,0,-0.004,94.8335,9.8453)"
        d="m 220,138 c 56,0 109,-29 109,-91 0,-72 -56,-121 -103,-149 -36,-21 -76,-36 -117,-36 -56,0 -109,29 -109,91 0,72 56,121 103,149 36,21 76,36 117,36 z"
      />
    </g>
  </g>
  <g
    transform="matrix(12.241256,0,0,12.241256,35.614049,2.1791739)"
    id="right-eye"
  >
    <rect
      transform="translate(1.2512,1.9999997)"
      x="-0.064999998"
      y="-2"
      width="0.13"
      height="3.3122001"
      id="right-eye-bar"
    />
    <g
      transform="translate(-94.8335,-6.3453003)"
      id="right-eye-ball"
    >
      <path
        transform="matrix(0.004,0,0,-0.004,94.8335,9.8453)"
        d="m 220,138 c 56,0 109,-29 109,-91 0,-72 -56,-121 -103,-149 -36,-21 -76,-36 -117,-36 -56,0 -109,29 -109,91 0,72 56,121 103,149 36,21 76,36 117,36 z"
      />
    </g>
  </g>
  <g
    id="brows"
    transform="translate(2.960066,5.8397358)"
  >
    <path
      id="left-brow"
      d="M 12.491757,10.39343 C 20.455639,-0.14680317 22.020446,0.24936933 27.585043,-1.1244181 l 0.09714,6.7624988 C 22.173073,7.5537939 22.399279,7.378886 15.145913,16.393437 l -0.100948,4.904987 c 3.975481,-4.675914 7.026896,-9.332893 12.461464,-10.202807 l 0.168082,3.594062 c -6.83595,2.262799 -9.109041,9.15164 -15.050312,12.295559 z"
       style="fill:#000000;fill-opacity:1;stroke:#000000;stroke-width:1px;stroke-linecap:butt;stroke-linejoin:miter;stroke-opacity:1"
    />
    <path
      id="right-brow"
      d="M 48.065884,-3.3606469 C 44.960103,-5.3186375 40.265328,-5.8994999 33.58186,-4.7568282 l -0.536805,6.8890211 c 3.320869,-0.1108787 5.195203,-1.30665857 12.052294,1.2346292 l 0.128401,4.830594 C 42.164372,6.6207682 37.473346,6.9453759 33.045055,6.963459 l -0.357869,4.204987 c 9.775446,-0.518577 10.999988,1.015062 15.388463,1.789357 z"
      style="fill:#000000;fill-opacity:1;stroke:#000000;stroke-width:1px;stroke-linecap:butt;stroke-linejoin:miter;stroke-opacity:1"
    />
  </g>
</svg>
