<?xml version="1.0" encoding="UTF-8" standalone="no"?>
<svg
   xmlns:dc="http://purl.org/dc/elements/1.1/"
   xmlns:cc="http://creativecommons.org/ns#"
   xmlns:rdf="http://www.w3.org/1999/02/22-rdf-syntax-ns#"
   xmlns:svg="http://www.w3.org/2000/svg"
   xmlns="http://www.w3.org/2000/svg"
   id="svg6"
   version="1.1"
   style="clip-rule:evenodd;fill-rule:evenodd;image-rendering:optimizeQuality;shape-rendering:geometricPrecision;text-rendering:geometricPrecision"
   viewBox="0 0 2080.7722 2080.7722">
  <metadata
     id="metadata12">
    <rdf:RDF>
      <cc:Work
         rdf:about="">
        <dc:format>image/svg+xml</dc:format>
        <dc:type
           rdf:resource="http://purl.org/dc/dcmitype/StillImage" />
        <dc:title></dc:title>
      </cc:Work>
    </rdf:RDF>
  </metadata>
  <defs
     id="defs10" />
  <g
     transform="matrix(8.6496043,0,0,8.6496043,-230.37262,-1334.2794)"
     id="g75"
     style="font-style:normal;font-weight:normal;font-size:12px;font-family:Dialog;color-interpolation:auto;fill:#000000;fill-opacity:1;stroke:#000000;stroke-width:1;stroke-linecap:square;stroke-linejoin:miter;stroke-miterlimit:10;stroke-dasharray:none;stroke-dashoffset:0;stroke-opacity:1;color-rendering:auto;image-rendering:auto;shape-rendering:auto;text-rendering:auto">
    <g
       id="g64">
      <g
         id="g62">
        <path
           style="stroke:none"
           d="m 266.7656,275.7656 q 0,64.9688 -43.875,120.5156 l -10.2656,-8.0156 q 41.2031,-50.9062 41.2031,-112.5 0,-60.3281 -41.0625,-112.3594 l 10.2656,-8.0156 q 43.7344,55.5469 43.7344,120.375 z m -30.9375,0 q 0,53.8594 -36.2812,101.25 l -10.2657,-7.7344 q 33.6094,-43.875 33.6094,-93.5156 0,-49.5 -33.6094,-93.375 l 10.2657,-7.7344 q 36.2812,46.4063 36.2812,101.1094 z m -30.9375,0 q 0,42.6094 -28.8281,81.9844 l -10.4063,-7.5938 Q 191.9531,315 191.9531,275.7656 q 0,-38.5312 -26.2969,-74.3906 l 10.4063,-7.5938 q 28.8281,39.375 28.8281,81.9844 z M 136.125,378.1406 69.8906,316.9688 H 28.125 v -82.4063 h 41.9062 l 66.0938,-61.0313 z"
           id="path60" />
      </g>
    </g>
  </g>
</svg>
