<?xml version="1.0" encoding="UTF-8" standalone="no"?>
<svg
  xmlns:svg="http://www.w3.org/2000/svg"
  xmlns="http://www.w3.org/2000/svg"
  height="2060.5"
  width="2060.5"
  viewBox="0 0 2060.5001 2060.5001"
  version="1.1"
>
  <path
    d="m 26.25,150.25 c -35,-34 -35,-90 0,-124 34,-35 90,-35 124,0 l 880,879 880,-879 c 34,-35 90,-35 124,0 35,34 35,90 0,124 l -879,880 879,880 c 35,34 35,90 0,124 -34,35 -90,35 -124,0 l -880,-879 -880,879 c -34,35 -90,35 -124,0 -35,-34 -35,-90 0,-124 l 879,-880 z"
  />
</svg>
