<?xml version="1.0" encoding="UTF-8" standalone="no"?>
<svg
   xmlns:svg="http://www.w3.org/2000/svg"
   xmlns="http://www.w3.org/2000/svg"
   version="1.1"
   style="clip-rule:evenodd;fill-rule:evenodd;image-rendering:optimizeQuality;shape-rendering:geometricPrecision;text-rendering:geometricPrecision"
   viewBox="0 0 2060.5001 2060.5001">
  <g
     transform="translate(-3541.75,-3541.75)">
     <path
        class="fil1"
        d="m 3568,3692 c -35,-34 -35,-90 0,-124 34,-35 90,-35 124,0 l 880,879 880,-879 c 34,-35 90,-35 124,0 35,34 35,90 0,124 l -879,880 879,880 c 35,34 35,90 0,124 -34,35 -90,35 -124,0 l -880,-879 -880,879 c -34,35 -90,35 -124,0 -35,-34 -35,-90 0,-124 l 879,-880 z" />
  </g>
</svg>
