<?xml version="1.0" encoding="UTF-8" standalone="no"?>
<svg
  xmlns:svg="http://www.w3.org/2000/svg"
  xmlns="http://www.w3.org/2000/svg"
  version="1.1"
  width="67.035332"
  height="68.875809"
  viewBox="0 0 67.035332 68.875809"
>
  <path
    d="M 2.1312771,67.50726 C -0.83275286,65.477189 -0.01765286,61.215219 0.55020714,58.210256 2.0527471,53.650697 8.7662671,52.829453 11.567767,56.60134 c 3.13479,2.692864 -1.04925,6.272341 -0.0129,8.868033 3.32852,-0.366299 5.78753,-3.273261 7.81632,-5.725464 2.45286,-3.345374 4.32709,-7.07061 6.36875,-10.664973 1.79487,-3.84543 -0.29748,-8.021197 -0.3352,-12.016534 -1.00489,-8.567604 -1.68936,-17.174457 -2.77462,-25.729558 -0.69454,-3.5999431 -6.07006,-3.2267501 -6.37547,0.418304 -0.42127,3.59445 -5.8601,3.638774 -3.42462,-0.238216 3.15993,-4.4012641 6.27289,-9.7876851 11.93302,-11.18504113 3.4796,-0.882762 8.47811,-0.123618 9.3526,4.01257703 1.78869,6.2793241 1.7583,12.8955041 2.6236,19.3311101 0.42152,1.596381 0.0853,7.271807 1.83224,3.576336 5.53252,-8.269363 9.80949,-17.3725891 16.11536,-25.1196481 3.09166,-2.25751403 8.50151,-3.158403 11.35633,-0.242654 1.46432,2.885401 1.38709,7.032974 -0.76496,9.5539351 -2.25218,1.928798 -6.15664,2.47443 -8.5834,0.597086 -1.12005,-2.6826581 -3.90309,-3.3095641 -4.7685,-0.0091 -11.02014,16.333529 -20.0734,33.961238 -31.19113,50.253355 -4.02252,5.201509 -11.5410999,8.212182 -17.8476699,5.685975 l -0.38555,-0.217532 z"
  />
</svg>
